<svg width="24" height="24" viewBox="0 0 24 24" fill="none" xmlns="http://www.w3.org/2000/svg">
<path opacity="0.3" fill-rule="evenodd" clip-rule="evenodd" d="M0 17.5C0 16.6716 0.671573 16 1.5 16H18.5C19.3284 16 20 16.6716 20 17.5C20 18.3284 19.3284 19 18.5 19H1.5C0.671573 19 0 18.3284 0 17.5Z" fill="#72C88A"/>
<path fill-rule="evenodd" clip-rule="evenodd" d="M0 11.5C0 10.6716 0.671573 10 1.5 10H8.5C9.32843 10 10 10.6716 10 11.5C10 12.3284 9.32843 13 8.5 13H1.5C0.671573 13 0 12.3284 0 11.5Z" fill="#1DB949" fill-opacity="0.57"/>
<path fill-rule="evenodd" clip-rule="evenodd" d="M0 5.5C0 4.67157 0.671573 4 1.5 4H22.5C23.3284 4 24 4.67157 24 5.5C24 6.32843 23.3284 7 22.5 7H1.5C0.671573 7 0 6.32843 0 5.5Z" fill="#1DB949" fill-opacity="0.57"/>
</svg>
