<svg width="95" height="28" viewBox="0 0 95 28" fill="none" xmlns="http://www.w3.org/2000/svg">
<path d="M17.184 6.2V23H14.616L5.352 11.624V23H2.256V6.2H4.824L14.088 17.576V6.2H17.184ZM27.1577 23.168C25.8617 23.168 24.6937 22.888 23.6537 22.328C22.6137 21.768 21.7977 20.992 21.2057 20C20.6297 18.992 20.3417 17.856 20.3417 16.592C20.3417 15.328 20.6297 14.2 21.2057 13.208C21.7977 12.216 22.6137 11.44 23.6537 10.88C24.6937 10.32 25.8617 10.04 27.1577 10.04C28.4697 10.04 29.6457 10.32 30.6857 10.88C31.7257 11.44 32.5337 12.216 33.1097 13.208C33.7017 14.2 33.9977 15.328 33.9977 16.592C33.9977 17.856 33.7017 18.992 33.1097 20C32.5337 20.992 31.7257 21.768 30.6857 22.328C29.6457 22.888 28.4697 23.168 27.1577 23.168ZM27.1577 20.6C28.2617 20.6 29.1737 20.232 29.8937 19.496C30.6137 18.76 30.9737 17.792 30.9737 16.592C30.9737 15.392 30.6137 14.424 29.8937 13.688C29.1737 12.952 28.2617 12.584 27.1577 12.584C26.0537 12.584 25.1417 12.952 24.4217 13.688C23.7177 14.424 23.3657 15.392 23.3657 16.592C23.3657 17.792 23.7177 18.76 24.4217 19.496C25.1417 20.232 26.0537 20.6 27.1577 20.6ZM49.4184 5.192V23H46.5384V21.344C46.0424 21.952 45.4264 22.408 44.6904 22.712C43.9704 23.016 43.1704 23.168 42.2904 23.168C41.0584 23.168 39.9464 22.896 38.9544 22.352C37.9784 21.808 37.2104 21.04 36.6504 20.048C36.0904 19.04 35.8104 17.888 35.8104 16.592C35.8104 15.296 36.0904 14.152 36.6504 13.16C37.2104 12.168 37.9784 11.4 38.9544 10.856C39.9464 10.312 41.0584 10.04 42.2904 10.04C43.1384 10.04 43.9144 10.184 44.6184 10.472C45.3224 10.76 45.9224 11.192 46.4184 11.768V5.192H49.4184ZM42.6504 20.6C43.3704 20.6 44.0184 20.44 44.5944 20.12C45.1704 19.784 45.6264 19.312 45.9624 18.704C46.2984 18.096 46.4664 17.392 46.4664 16.592C46.4664 15.792 46.2984 15.088 45.9624 14.48C45.6264 13.872 45.1704 13.408 44.5944 13.088C44.0184 12.752 43.3704 12.584 42.6504 12.584C41.9304 12.584 41.2824 12.752 40.7064 13.088C40.1304 13.408 39.6744 13.872 39.3384 14.48C39.0024 15.088 38.8344 15.792 38.8344 16.592C38.8344 17.392 39.0024 18.096 39.3384 18.704C39.6744 19.312 40.1304 19.784 40.7064 20.12C41.2824 20.44 41.9304 20.6 42.6504 20.6ZM53.343 10.184H56.343V23H53.343V10.184ZM54.855 8.072C54.311 8.072 53.855 7.904 53.487 7.568C53.119 7.216 52.935 6.784 52.935 6.272C52.935 5.76 53.119 5.336 53.487 5C53.855 4.648 54.311 4.472 54.855 4.472C55.399 4.472 55.855 4.64 56.223 4.976C56.591 5.296 56.775 5.704 56.775 6.2C56.775 6.728 56.591 7.176 56.223 7.544C55.871 7.896 55.415 8.072 54.855 8.072ZM65.4885 7.448C64.2245 7.448 63.5925 8.136 63.5925 9.512V10.28H67.1205V12.68H63.6885V23H60.6885V12.68H58.5765V10.28H60.6885V9.464C60.6885 8.088 61.0885 7.008 61.8885 6.224C62.6885 5.424 63.8165 5.024 65.2725 5.024C66.4245 5.024 67.3285 5.256 67.9845 5.72L67.1445 7.976C66.6325 7.624 66.0805 7.448 65.4885 7.448ZM81.3743 10.184L75.3743 24.032C74.8143 25.424 74.1343 26.4 73.3343 26.96C72.5343 27.536 71.5663 27.824 70.4303 27.824C69.7903 27.824 69.1583 27.72 68.5343 27.512C67.9103 27.304 67.3982 27.016 66.9982 26.648L68.1982 24.44C68.4863 24.712 68.8223 24.928 69.2063 25.088C69.6063 25.248 70.0063 25.328 70.4062 25.328C70.9343 25.328 71.3663 25.192 71.7023 24.92C72.0543 24.648 72.3743 24.192 72.6623 23.552L72.8783 23.048L67.2862 10.184H70.4062L74.4383 19.664L78.4943 10.184H81.3743ZM83.4124 23.168C82.8684 23.168 82.4044 22.984 82.0204 22.616C81.6364 22.232 81.4444 21.752 81.4444 21.176C81.4444 20.584 81.6284 20.104 81.9964 19.736C82.3804 19.368 82.8524 19.184 83.4124 19.184C83.9724 19.184 84.4364 19.368 84.8044 19.736C85.1884 20.104 85.3804 20.584 85.3804 21.176C85.3804 21.752 85.1884 22.232 84.8044 22.616C84.4204 22.984 83.9564 23.168 83.4124 23.168Z" fill="#191414"/>
</svg>
