<svg width="95" height="28" viewBox="0 0 95 28" fill="none" xmlns="http://www.w3.org/2000/svg">
<path d="M17.928 6.2V23H13.272L6.888 15.368V23H1.368V6.2H6.024L12.408 13.832V6.2H17.928ZM27.4251 23.24C25.9691 23.24 24.6571 22.952 23.4891 22.376C22.3371 21.784 21.4331 20.976 20.7771 19.952C20.1211 18.912 19.7931 17.736 19.7931 16.424C19.7931 15.112 20.1211 13.944 20.7771 12.92C21.4331 11.88 22.3371 11.072 23.4891 10.496C24.6571 9.92 25.9691 9.632 27.4251 9.632C28.8971 9.632 30.2091 9.92 31.3611 10.496C32.5291 11.072 33.4331 11.88 34.0731 12.92C34.7291 13.944 35.0571 15.112 35.0571 16.424C35.0571 17.736 34.7291 18.912 34.0731 19.952C33.4331 20.976 32.5291 21.784 31.3611 22.376C30.2091 22.952 28.8971 23.24 27.4251 23.24ZM27.4251 19.016C28.0491 19.016 28.5611 18.792 28.9611 18.344C29.3611 17.88 29.5611 17.24 29.5611 16.424C29.5611 15.608 29.3611 14.976 28.9611 14.528C28.5611 14.08 28.0491 13.856 27.4251 13.856C26.8011 13.856 26.2891 14.08 25.8891 14.528C25.4891 14.976 25.2891 15.608 25.2891 16.424C25.2891 17.24 25.4891 17.88 25.8891 18.344C26.2891 18.792 26.8011 19.016 27.4251 19.016ZM51.2747 5.192V23H46.1147V21.92C45.3307 22.8 44.1307 23.24 42.5147 23.24C41.3627 23.24 40.2987 22.968 39.3227 22.424C38.3627 21.864 37.5947 21.064 37.0187 20.024C36.4587 18.984 36.1787 17.784 36.1787 16.424C36.1787 15.064 36.4587 13.872 37.0187 12.848C37.5947 11.808 38.3627 11.016 39.3227 10.472C40.2987 9.912 41.3627 9.632 42.5147 9.632C43.9707 9.632 45.0827 10.008 45.8507 10.76V5.192H51.2747ZM43.8107 19.016C44.4347 19.016 44.9467 18.792 45.3467 18.344C45.7467 17.88 45.9467 17.24 45.9467 16.424C45.9467 15.608 45.7467 14.976 45.3467 14.528C44.9467 14.08 44.4347 13.856 43.8107 13.856C43.1867 13.856 42.6747 14.08 42.2747 14.528C41.8747 14.976 41.6747 15.608 41.6747 16.424C41.6747 17.24 41.8747 17.88 42.2747 18.344C42.6747 18.792 43.1867 19.016 43.8107 19.016ZM53.6766 9.872H59.1006V23H53.6766V9.872ZM56.3886 8.816C55.4126 8.816 54.6206 8.56 54.0126 8.048C53.4206 7.52 53.1246 6.856 53.1246 6.056C53.1246 5.256 53.4206 4.6 54.0126 4.088C54.6206 3.56 55.4126 3.296 56.3886 3.296C57.3806 3.296 58.1726 3.544 58.7646 4.04C59.3566 4.536 59.6526 5.176 59.6526 5.96C59.6526 6.792 59.3566 7.48 58.7646 8.024C58.1726 8.552 57.3806 8.816 56.3886 8.816ZM67.3607 10.592H70.2167V14.552H67.5287V23H62.1047V14.552H60.3047V10.592H62.1047V10.52C62.1047 8.808 62.6167 7.456 63.6407 6.464C64.6647 5.456 66.1047 4.952 67.9607 4.952C68.5687 4.952 69.1607 5.008 69.7367 5.12C70.3127 5.232 70.7927 5.392 71.1767 5.6L69.8807 9.368C69.4327 9.16 69.0247 9.056 68.6567 9.056C68.2567 9.056 67.9367 9.184 67.6967 9.44C67.4727 9.68 67.3607 10.056 67.3607 10.568V10.592ZM86.5738 9.872L81.1738 23.264C80.4858 24.976 79.6298 26.176 78.6058 26.864C77.5818 27.552 76.3258 27.896 74.8378 27.896C74.1018 27.896 73.3578 27.784 72.6058 27.56C71.8698 27.352 71.2858 27.072 70.8538 26.72L72.6538 23C72.9258 23.208 73.2298 23.376 73.5658 23.504C73.9178 23.632 74.2538 23.696 74.5738 23.696C75.1658 23.696 75.6138 23.52 75.9178 23.168L70.3978 9.872H75.9658L78.6778 16.904L81.4378 9.872H86.5738ZM89.1246 23.24C88.2126 23.24 87.4526 22.952 86.8446 22.376C86.2526 21.784 85.9566 21.032 85.9566 20.12C85.9566 19.208 86.2526 18.472 86.8446 17.912C87.4526 17.336 88.2126 17.048 89.1246 17.048C90.0366 17.048 90.7886 17.336 91.3806 17.912C91.9886 18.472 92.2926 19.208 92.2926 20.12C92.2926 21.032 91.9886 21.784 91.3806 22.376C90.7886 22.952 90.0366 23.24 89.1246 23.24Z" fill="#191414"/>
</svg>
